<svg width="30" height="30" viewBox="0 0 30 30" fill="none" xmlns="http://www.w3.org/2000/svg">
<path d="M20.7216 18.0717C20.7216 19.554 19.5184 20.7572 18.0361 20.7572H11.9654C10.4831 20.7572 9.27597 19.554 9.27597 18.0717V12.0009C9.27597 10.5147 10.4831 9.31154 11.9654 9.31154H18.0361C19.5184 9.31154 20.7216 10.5147 20.7216 12.0009V18.0717ZM17.9654 7.98651H12.0361C9.79891 7.98651 7.98633 9.79909 7.98633 12.0363V17.9655C7.98633 20.2028 9.79891 22.0153 12.0361 22.0153H17.9654C20.2026 22.0153 22.0152 20.2028 22.0152 17.9655V12.0363C22.0152 9.79909 20.2026 7.98651 17.9654 7.98651Z" fill="white"/>
<path d="M15.0003 17.3961C13.6949 17.3961 12.6412 16.3385 12.6412 15.037C12.6412 13.7316 13.6949 12.6779 15.0003 12.6779C16.3017 12.6779 17.3594 13.7316 17.3594 15.037C17.3594 16.3385 16.3017 17.3961 15.0003 17.3961ZM15.0003 11.3961C12.9872 11.3961 11.3594 13.0239 11.3594 15.037C11.3594 17.0462 12.9872 18.6779 15.0003 18.6779C17.0094 18.6779 18.6412 17.0462 18.6412 15.037C18.6412 13.0239 17.0094 11.3961 15.0003 11.3961Z" fill="white"/>
<path d="M18.7619 10.4091C18.294 10.4091 17.9126 10.7904 17.9126 11.2583C17.9126 11.7262 18.294 12.1037 18.7619 12.1037C19.2298 12.1037 19.6072 11.7262 19.6072 11.2583C19.6072 10.7904 19.2298 10.4091 18.7619 10.4091Z" fill="white"/>
</svg>
