<svg width="30" height="30" viewBox="0 0 30 30" fill="none" xmlns="http://www.w3.org/2000/svg">
<path d="M22.1243 10.5817C21.6012 10.8142 21.0394 10.9692 20.4452 11.0402C21.0523 10.6786 21.514 10.1071 21.7336 9.42252C21.1588 9.76479 20.5292 10.0037 19.8737 10.1329C19.3409 9.56459 18.5821 9.20941 17.7426 9.20941C16.1281 9.20941 14.8172 10.5171 14.8172 12.1348C14.8172 12.3608 14.843 12.5869 14.8947 12.8C12.4633 12.6773 10.3096 11.5149 8.86628 9.74541C8.61443 10.1781 8.47235 10.6786 8.47235 11.2146C8.47235 12.2285 8.98898 13.1261 9.77361 13.6492C9.30865 13.633 8.85337 13.5103 8.44652 13.2843V13.3198C8.44652 14.7373 9.45395 15.9191 10.794 16.1871C10.5453 16.2549 10.2902 16.2905 10.0222 16.2905C9.83496 16.2905 9.65091 16.2711 9.47332 16.2388C9.84465 17.398 10.9231 18.244 12.205 18.2666C11.2008 19.0512 9.94152 19.5194 8.57245 19.5194C8.33674 19.5194 8.10425 19.5065 7.875 19.4774C9.1698 20.3073 10.7068 20.7916 12.3568 20.7916C17.7329 20.7916 20.6745 16.3357 20.6745 12.4739C20.6745 12.3479 20.6713 12.222 20.6648 12.0961C21.2395 11.6828 21.7336 11.1694 22.1243 10.5817Z" fill="white"/>
</svg>
